<svg viewBox="0 0 600 270" xmlns="http://www.w3.org/2000/svg">
  <defs>
    <linearGradient id="ag1" x1="0" y1="0" x2="1" y2="0">
      <stop offset="0%" stop-color="#C41230"/>
      <stop offset="42%" stop-color="#7B3A6B"/>
      <stop offset="58%" stop-color="#5A6AAE"/>
      <stop offset="100%" stop-color="#4488DD"/>
    </linearGradient>
    <clipPath id="sL1"><rect x="230" y="0" width="70" height="200"/></clipPath>
    <clipPath id="sR1"><rect x="300" y="0" width="70" height="200"/></clipPath>
    <path id="s1" d="M300 -8 L311.8 23.8 L345.6 25.2 L319 46.2 L328.2 78.8 L300 60 L271.8 78.8 L281 46.2 L254.4 25.2 L288.2 23.8 Z"/>
  </defs>
  <path d="M60 175 Q130 35 300 35 Q470 35 540 175" fill="none" stroke="url(#ag1)" stroke-width="7" stroke-linecap="round"/>
  <line x1="115" y1="125" x2="115" y2="183" stroke="#C41230" stroke-width="6" stroke-linecap="round"/>
  <line x1="485" y1="125" x2="485" y2="183" stroke="#4488DD" stroke-width="6" stroke-linecap="round"/>
  <line x1="300" y1="79" x2="300" y2="183" stroke="#5C2D82" stroke-width="6" stroke-linecap="round"/>
  <line x1="60" y1="183" x2="540" y2="183" stroke="#1A1A1A" stroke-width="3" stroke-linecap="round"/>
  <use href="#s1" fill="#C41230" clip-path="url(#sL1)"/>
  <use href="#s1" fill="#4488DD" clip-path="url(#sR1)"/>
  <line x1="300" y1="-8" x2="300" y2="79" stroke="#ffffff" stroke-width="1.8" opacity="0.7"/>
  <text x="300" y="218" text-anchor="middle" font-family="'Sora', sans-serif" font-weight="700" font-size="14" fill="#999" letter-spacing="8">MODERATE</text>
  <text x="300" y="252" text-anchor="middle" font-family="'DM Serif Display', serif" font-size="34" fill="#1A1A1A">Populist</text>
</svg>
